<?xml version="1.0" encoding="UTF-8" standalone="no"?>
<svg
   xmlns:dc="http://purl.org/dc/elements/1.1/"
   xmlns:cc="http://creativecommons.org/ns#"
   xmlns:rdf="http://www.w3.org/1999/02/22-rdf-syntax-ns#"
   xmlns:svg="http://www.w3.org/2000/svg"
   xmlns="http://www.w3.org/2000/svg"
   xmlns:sodipodi="http://sodipodi.sourceforge.net/DTD/sodipodi-0.dtd"
   xmlns:inkscape="http://www.inkscape.org/namespaces/inkscape"
   id="svg2"
   x="0"
   y="0"
   width="20"
   height="60"
   version="1.0"
   sodipodi:version="0.32"
   inkscape:version="0.46"
   sodipodi:docname="Music_44.svg"
   inkscape:output_extension="org.inkscape.output.svg.inkscape">
  <metadata
     id="metadata2624">
    <rdf:RDF>
      <cc:Work
         rdf:about="">
        <dc:format>image/svg+xml</dc:format>
        <dc:type
           rdf:resource="http://purl.org/dc/dcmitype/StillImage" />
      </cc:Work>
    </rdf:RDF>
  </metadata>
  <defs
     id="defs2622">
    <inkscape:perspective
       sodipodi:type="inkscape:persp3d"
       inkscape:vp_x="0 : 30 : 1"
       inkscape:vp_y="0 : 1000 : 0"
       inkscape:vp_z="20 : 30 : 1"
       inkscape:persp3d-origin="10 : 20 : 1"
       id="perspective2626" />
  </defs>
  <sodipodi:namedview
     inkscape:window-height="844"
     inkscape:window-width="1440"
     inkscape:pageshadow="2"
     inkscape:pageopacity="0.0"
     guidetolerance="10.0"
     gridtolerance="10.0"
     objecttolerance="10.0"
     borderopacity="1.0"
     bordercolor="#666666"
     pagecolor="#ffffff"
     id="base"
     showgrid="false"
     inkscape:zoom="10.633333"
     inkscape:cx="10"
     inkscape:cy="30"
     inkscape:window-x="-4"
     inkscape:window-y="-4"
     inkscape:current-layer="svg2" />
  <path
     d="M 10.950915,17.170208 L 11.553653,17.170208 C 12.677989,17.179878 13.721187,17.427156 14.683267,17.912046 C 15.645319,18.396952 16.456703,19.061508 17.117413,19.905722 C 17.003421,19.903804 16.895237,19.896076 16.792863,19.88254 C 16.690453,19.86903 16.582269,19.861302 16.468311,19.859358 C 15.416397,19.898004 14.599221,20.27279 14.016783,20.983704 C 13.434311,21.694632 13.138733,22.509882 13.130059,23.429442 C 13.199589,24.68998 13.628459,25.588296 14.416671,26.124386 C 15.204857,26.660476 15.935097,26.92128 16.607405,26.906788 L 16.607405,26.906788 C 17.467065,26.880706 18.193441,26.550364 18.786539,25.915746 C 19.379605,25.281126 19.688701,24.498724 19.713837,23.568536 C 19.713529,22.657844 19.410159,21.62008 18.803711,20.455236 C 18.197231,19.290398 17.289399,18.269806 16.080215,17.393444 C 14.871009,16.517112 13.362147,16.056328 11.553653,16.011098 L 10.950915,16.011098 L 9.2354244,16.15019 C 5.9077896,16.754872 3.5219416,18.16513 2.0778736,20.380966 C 0.63381551,22.59681 -0.07131463,25.18937 -0.03750664,28.158636 C -0.06842263,31.127902 0.64250551,33.720452 2.0952656,35.936304 C 3.5480176,38.15214 5.9280716,39.562398 9.2354244,40.16708 L 10.950915,40.306174 C 11.065855,40.308092 11.172101,40.31582 11.269675,40.329356 C 11.367223,40.342866 11.461881,40.350594 11.553653,40.352538 C 13.614293,40.270104 15.267963,39.6416 16.514677,38.467044 C 17.761347,37.292462 18.662885,36.066374 19.219283,34.788778 C 19.775631,33.511172 20.048673,32.676606 20.038387,32.28509 C 20.030643,32.119908 19.964959,31.986614 19.841337,31.885194 C 19.717675,31.783766 19.582445,31.731602 19.435649,31.72871 C 19.316813,31.727738 19.206703,31.764448 19.105299,31.83883 C 19.003855,31.913204 18.928515,32.031042 18.879267,32.192362 C 18.420435,34.127112 17.553031,35.763392 16.277055,37.101214 C 15.001045,38.439018 13.426583,39.13642 11.553653,39.193418 C 11.461881,39.191474 11.367223,39.183748 11.269675,39.170236 C 11.172101,39.156702 11.065845,39.148974 10.093175,38.984778 C 7.9372044,38.294134 7.1142276,37.310816 6.7665036,35.872548 C 6.4187616,34.43428 6.2680776,32.651172 6.3144496,30.523228 L 6.3144496,28.158636 L 6.3144496,25.794036 C 6.2680776,23.666092 6.4187616,21.88299 6.7665036,20.444714 C 7.1142356,19.006452 7.9372044,18.023138 9.2354244,17.494766"
     id="text2383"
     style="font-size:57.24105072px;font-style:normal;font-variant:normal;font-weight:normal;font-stretch:normal;text-align:center;text-anchor:middle;fill:#000000;fill-opacity:1;stroke:none;stroke-width:1px;stroke-linecap:butt;stroke-linejoin:miter;stroke-opacity:1;font-family:feta20;-inkscape-font-specification:feta20"
     sodipodi:nodetypes="ccscssscsccscsscccscsccscsssssscscscscccsc" />
</svg>
